# xmcd CD database file
#
# Track frame offsets:
#	150
#	15077
#	30185
#	49620
#	64189
#	79938
#	97478
#	109226
#	121284
#	138664
#	156909
#	174212
#
# Disc length: 2551 seconds
#
# Revision: 0
# Processed by: cddbd v1.5.1PL0 Copyright (c) Steve Scherf et al.
# Submitted via: CDex 1.51
#
DISCID=9509f50c
DTITLE=Uwe Kroger - From Broadway To Hollywood
DYEAR=2003
DGENRE=Vocal
TTITLE0=From Russia With Love
TTITLE1=Born Free
TTITLE2=Tomorrow Never Dies
TTITLE3=Calling You
TTITLE4=Written In The Stars
TTITLE5=Unchained Melody
TTITLE6=All I care About Is Love
TTITLE7=Alfie
TTITLE8=Last Tango In Paris
TTITLE9=The Winner Talkes It All
TTITLE10=Time Of My Life
TTITLE11=You Saved My Life
EXTD=YEAR: 2003
EXTT0=
EXTT1=
EXTT2=
EXTT3=
EXTT4=
EXTT5=
EXTT6=
EXTT7=
EXTT8=
EXTT9=
EXTT10=
EXTT11=
PLAYORDER=
